<svg id="visual" viewBox="0 0 900 600" width="900" height="600" xmlns="http://www.w3.org/2000/svg" xmlns:xlink="http://www.w3.org/1999/xlink" version="1.1"><rect x="0" y="0" width="900" height="600" fill="#ff5444"></rect><defs><linearGradient id="grad1_0" x1="33.3%" y1="100%" x2="100%" y2="0%"><stop offset="20%" stop-color="#ff5444" stop-opacity="1"></stop><stop offset="80%" stop-color="#ff5444" stop-opacity="1"></stop></linearGradient></defs><defs><linearGradient id="grad2_0" x1="0%" y1="100%" x2="66.7%" y2="0%"><stop offset="20%" stop-color="#ff5444" stop-opacity="1"></stop><stop offset="80%" stop-color="#ff5444" stop-opacity="1"></stop></linearGradient></defs><g transform="translate(900, 600)"><path d="M-351.5 0C-331.8 -40.8 -312 -81.6 -293.8 -121.7C-275.6 -161.7 -258.9 -201 -231.2 -231.2C-203.5 -261.4 -164.8 -282.6 -124.4 -300.3C-84 -317.9 -42 -331.9 0 -346L0 0Z" fill="#f6a52b"></path></g><g transform="translate(0, 0)"><path d="M345 0C328.3 40.5 311.5 80.9 296.6 122.8C281.6 164.8 268.5 208.2 241.1 241.1C213.8 274.1 172.3 296.5 129.7 313.2C87.2 329.9 43.6 340.7 0 351.5L0 0Z" fill="#f6a52b"></path></g></svg>